<?xml version="1.0" encoding="UTF-8" standalone="no"?>
<svg
   xmlns:dc="http://purl.org/dc/elements/1.1/"
   xmlns:cc="http://creativecommons.org/ns#"
   xmlns:rdf="http://www.w3.org/1999/02/22-rdf-syntax-ns#"
   xmlns:svg="http://www.w3.org/2000/svg"
   xmlns="http://www.w3.org/2000/svg"
   xmlns:sodipodi="http://sodipodi.sourceforge.net/DTD/sodipodi-0.dtd"
   xmlns:inkscape="http://www.inkscape.org/namespaces/inkscape"
   inkscape:version="1.0alpha (9dee831, 2019-01-15)"
   sodipodi:docname="robot.svg"
   id="svg2"
   version="1.1"
   xml:space="preserve"
   width="16"
   height="16"
   viewBox="0 0 16 16">
  <sodipodi:namedview
     inkscape:current-layer="svg2"
     inkscape:window-maximized="1"
     inkscape:window-y="27"
     inkscape:window-x="0"
     inkscape:cy="169.03042"
     inkscape:cx="639.63631"
     inkscape:zoom="1.3437791"
     showgrid="false"
     id="namedview479"
     inkscape:window-height="1376"
     inkscape:window-width="2560"
     inkscape:pageshadow="2"
     inkscape:pageopacity="0"
     guidetolerance="10"
     gridtolerance="10"
     objecttolerance="10"
     borderopacity="1"
     inkscape:document-rotation="0"
     bordercolor="#666666"
     pagecolor="#ffffff" />
  <metadata
     id="metadata8">
    <rdf:RDF>
      <cc:Work
         rdf:about="">
        <dc:format>image/svg+xml</dc:format>
        <dc:type
           rdf:resource="http://purl.org/dc/dcmitype/StillImage" />
        <dc:title></dc:title>
      </cc:Work>
    </rdf:RDF>
  </metadata>
  <defs
     id="defs6" />
  <g
     id="g10"
     transform="matrix(1.25,0,0,-1.25,0,15.999999)">
    <g
       id="g12"
       transform="matrix(0.00340426,0,0,0.00340426,2.0833643,0)"
       style="fill:#000000">
      <path
         d="m 968.012,1971.99 0,320 c 0,33.13 -26.883,60 -60,60 -33.133,0 -60,-26.87 -60,-60 l 0,-320 c 0,-33.12 26.867,-60 60,-60 33.117,0 60,26.88 60,60 z"
         style="fill:#000000;fill-opacity:1;fill-rule:nonzero;stroke:none"
         id="path14" />
      <path
         d="m 1208.01,1971.99 0,320 c 0,33.13 -26.88,60 -60,60 -33.13,0 -60,-26.87 -60,-60 l 0,-320 c 0,-33.12 26.87,-60 60,-60 33.12,0 60,26.88 60,60 z"
         style="fill:#000000;fill-opacity:1;fill-rule:nonzero;stroke:none"
         id="path16" />
      <path
         d="m 1448.01,1971.99 0,320 c 0,33.13 -26.88,60 -60,60 -33.17,0 -60,-26.87 -60,-60 l 0,-320 c 0,-33.12 26.83,-60 60,-60 33.12,0 60,26.88 60,60 z"
         style="fill:#000000;fill-opacity:1;fill-rule:nonzero;stroke:none"
         id="path18" />
      <path
         d="m 1688.01,1971.99 0,320 c 0,33.13 -26.88,60 -60,60 -33.17,0 -60,-26.87 -60,-60 l 0,-320 c 0,-33.12 26.83,-60 60,-60 33.12,0 60,26.88 60,60 z"
         style="fill:#000000;fill-opacity:1;fill-rule:nonzero;stroke:none"
         id="path20" />
      <path
         d="m 743.98,2862.03 0,-10.04 c 0,-77.19 62.821,-140 140,-140 l 768.01,0 c 77.19,0 140,62.81 140,140 l 0,10.04 c 136.76,27.89 240,149.1 240,293.99 l 0,543.98 c 0,33.12 -26.83,60 -60,60 -33.12,0 -60,-26.88 -60,-60 l 0,-304.14 c -34.88,26.25 -75.66,45.08 -120,54.1 l 0,10.04 c 0,77.19 -62.81,140 -140,140 l -768.01,0 c -77.179,0 -140,-62.81 -140,-140 l 0,-10.04 c -44.289,-9.02 -85.07,-27.85 -120,-54.14 l 0,304.18 c 0,33.12 -26.832,60 -60,60 -33.121,0 -60,-26.88 -60,-60 l 0,-543.98 c 0,-144.89 103.25,-266.1 240,-293.99 z m 1168.01,293.99 c 0,-78.25 -50.15,-144.93 -120,-169.69 l 0,339.33 c 69.85,-24.76 120,-91.44 120,-169.64 z M 863.98,3460 c 0,10.86 9.18,20 20,20 l 768.01,0 c 10.86,0 20,-9.14 20,-20 l 0,-608.01 c 0,-10.82 -9.14,-20 -20,-20 l -768.01,0 c -10.82,0 -20,9.18 -20,20 l 0,608.01 z m -120,-134.34 0,-339.33 c -69.8,24.76 -120,91.44 -120,169.69 0,78.2 50.2,144.88 120,169.64 z"
         style="fill:#000000;fill-opacity:1;fill-rule:nonzero;stroke:none"
         id="path22" />
      <path
         d="m 2536.02,1283.98 0,928.01 c 0,165.43 -134.61,300 -300,300 l -104.03,0 c -33.12,0 -60,-26.87 -60,-60 l 0,-20 -120,0 0,20 c 0,77.19 -62.81,140 -140,140 l -1088.01,0 c -77.179,0 -140,-62.81 -140,-140 l 0,-20 -120,0 0,20 c 0,33.13 -26.832,60 -60,60 l -103.98,0 c -165.43,0 -300,-134.57 -300,-300 L 0,1283.98 C 0,1260.7 13.3203,1240.55 32.6992,1230.62 11.9492,1195.9 0,1155.31 0,1111.99 l 0,-88.2 c 0,-33.13 26.8789,-60.001 60,-60.001 33.1211,0 60,26.871 60,60.001 l 0,88.2 c 0,61.76 50.23,111.99 111.988,111.99 61.762,0 111.992,-50.23 111.992,-111.99 l 0,-88.2 c 0,-33.13 26.879,-60.001 60,-60.001 33.168,0 60,26.871 60,60.001 l 0,88.2 c 0,43.32 -11.949,83.91 -32.691,118.63 19.41,9.93 32.691,30.08 32.691,53.36 l 0,1028.01 120,0 0,-468.01 c 0,-33.12 26.879,-60 60,-60 33.168,0 60,26.88 60,60 l 0,608.01 c 0,10.86 9.18,20 20,20 l 1088.01,0 c 10.86,0 20,-9.14 20,-20 l 0,-1088.01 c 0,-10.82 -9.14,-20 -20,-20 l -1088.01,0 c -10.82,0 -20,9.18 -20,20 l 0,240 c 0,33.17 -26.832,60 -60,60 -33.121,0 -60,-26.83 -60,-60 l 0,-240 c 0,-55.7 32.821,-103.75 80,-126.28 l 0,-891.411 c -47.179,-22.5 -80,-70.59 -80,-126.289 l 0,-160 c 0,-33.1211 26.879,-60 60,-60 l 504.03,0 c 33.12,0 60,26.8789 60,60 l 0,160 c 0,55.699 -32.78,103.789 -80,126.289 l 0,697.691 c 0,33.17 -26.88,60 -60,60 -33.13,0 -60,-26.83 -60,-60 l 0,-191.992 -224.03,0 0,371.992 968.01,0 0,-371.992 -223.98,0 0,191.992 c 0,33.17 -26.88,60 -60,60 -33.17,0 -60,-26.83 -60,-60 l 0,-697.691 c -47.23,-22.539 -80,-70.59 -80,-126.289 l 0,-160 c 0,-33.1211 26.83,-60 60,-60 l 503.98,0 c 33.17,0 60,26.8789 60,60 l 0,160 c 0,55.699 -32.77,103.789 -80,126.289 l 0,891.411 c 47.23,22.53 80,70.58 80,126.28 l 0,948.01 120,0 0,-1028.01 c 0,-23.28 13.32,-43.43 32.74,-53.36 -20.78,-34.76 -32.74,-75.31 -32.74,-118.63 l 0,-88.2 c 0,-33.13 26.88,-60.001 60,-60.001 33.17,0 60,26.871 60,60.001 l 0,88.2 c 0,61.76 50.24,111.99 111.99,111.99 61.76,0 112.04,-50.23 112.04,-111.99 l 0,-88.2 c 0,-33.13 26.83,-60.001 60,-60.001 33.12,0 60,26.871 60,60.001 l 0,88.2 c 0,43.32 -12,83.87 -32.74,118.63 19.42,9.93 32.74,30.08 32.74,53.36 z M 120,2211.99 c 0,99.26 80.738,180 180,180 l 43.98,0 0,-1048.01 -223.98,0 0,868.01 z M 1088.01,120 l -384.03,0 0,100 c 0,10.859 9.18,20 20,20 l 344.03,0 c 10.82,0 20,-9.141 20,-20 l 0,-100 z m -80,240 -224.031,0 0,371.988 224.031,0 0,-371.988 z m 743.98,0 -223.977,0 0,371.988 223.977,0 0,-371.988 z m 80,-240 -383.98,0 0,100 c 0,10.859 9.14,20 20,20 l 343.98,0 c 10.86,0 20,-9.141 20,-20 l 0,-100 z m 360,2271.99 44.03,0 c 99.21,0 180,-80.74 180,-180 l 0,-868.01 -224.03,0 0,1048.01 z"
         style="fill:#000000;fill-opacity:1;fill-rule:nonzero;stroke:none"
         id="path24" />
    </g>
  </g>
  <text
     id="text483"
     y="15.273355"
     x="1.516867"
     style="font-style:normal;font-weight:normal;font-size:20px;font-family:sans-serif;fill:#000000;fill-opacity:1;stroke:none"
     xml:space="preserve"><tspan
       y="15.273355"
       x="1.516867"
       id="tspan481"
       sodipodi:role="line">S</tspan></text>
</svg>
